PathFileType  4	(X/Y/Z) C:\Users\antoi\Documents\MyRepositories\mobilecap\ResultsAnalysis
DataRate	CameraRate	NumFrames	NumMarkers	Units	OrigDataRate	OrigDataStartFrame	OrigNumFrames
100.0	100.0	6	51	mm	100.0	60	237
Frame#	Time	r_knee			r_shank_antsup			r_ankle			r_calc			r_5meta			r_toe			L_knee			L_shank_antsup			L_ankle			L_calc			L_5meta			L_toe			r_sh2			r_sh3			r_sh4			L_sh2			L_sh3			r_thigh1			r_thigh2			r_thigh3			r_thigh4			r_thigh5			L_thigh1			L_thigh2			L_thigh3			L_thigh4			r.ASIS			r.PSIS			L.ASIS			L.PSIS			C7			R_Shoulder			L_Shoulder			R_Sternum			L_Sternum			R_humerus			R_elbow_med			R_elbow_lat			R_forearm			R_wrist_radius			R_wrist_ulna			L_humerus			L_elbow_med			L_elbow_lat			L_forearm			L_wrist_radius			L_wrist_ulna			R_HJC			L_HJC			R_HJC_reg			L_HJC_reg			
		X1	Y1	Z1	X2	Y2	Z2	X3	Y3	Z3	X4	Y4	Z4	X5	Y5	Z5	X6	Y6	Z6	X7	Y7	Z7	X8	Y8	Z8	X9	Y9	Z9	X10	Y10	Z10	X11	Y11	Z11	X12	Y12	Z12	X13	Y13	Z13	X14	Y14	Z14	X15	Y15	Z15	X16	Y16	Z16	X17	Y17	Z17	X18	Y18	Z18	X19	Y19	Z19	X20	Y20	Z20	X21	Y21	Z21	X22	Y22	Z22	X23	Y23	Z23	X24	Y24	Z24	X25	Y25	Z25	X26	Y26	Z26	X27	Y27	Z27	X28	Y28	Z28	X29	Y29	Z29	X30	Y30	Z30	X31	Y31	Z31	X32	Y32	Z32	X33	Y33	Z33	X34	Y34	Z34	X35	Y35	Z35	X36	Y36	Z36	X37	Y37	Z37	X38	Y38	Z38	X39	Y39	Z39	X40	Y40	Z40	X41	Y41	Z41	X42	Y42	Z42	X43	Y43	Z43	X44	Y44	Z44	X45	Y45	Z45	X46	Y46	Z46	X47	Y47	Z47	X48	Y48	Z48	X49	Y49	Z49	X50	Y50	Z50	X51	Y51	Z51	

60	0.59000000	-1060.17744	753.90537	-453.24671	-1059.48526	679.83876	-428.92185	-1185.88935	399.49443	-454.91311	-1258.16404	362.04620	-491.01795	-1085.51728	354.29186	-431.79118	-1044.49589	375.93827	-488.84218	-1056.46687	754.87954	-730.50262	-1039.96669	681.87659	-734.92026	-1176.93366	403.50593	-725.49657	-1249.70848	366.74592	-678.34029	-1087.06219	351.70629	-748.13199	-1038.50731	375.69063	-693.90272	-1097.53800	572.97062	-421.79881	-1130.54009	704.17176	-432.27273	-1176.42868	597.22354	-427.15658	-1119.26259	718.55802	-757.94323	-1156.31990	600.91095	-761.17969	-1049.27292	1066.01285	-452.24661	-1019.90125	957.14593	-450.14488	-1056.35157	924.75353	-403.99650	-1133.66539	1046.45071	-378.49184	-1112.74302	932.09392	-395.30298	-1064.67289	1044.39020	-737.10251	-1026.63004	910.60326	-734.80331	-1175.70182	1014.82265	-757.90121	-1130.08328	881.04280	-752.25916	-1058.26292	1180.95475	-452.10471	-1228.37298	1257.08142	-514.60915	-1071.48408	1176.00964	-703.90565	-1240.07396	1251.04376	-619.97438	-948.37227	1641.47963	-574.07615	-901.00155	1557.27355	-429.62544	-898.77201	1570.56806	-733.58432	-881.29962	1513.16033	-561.24818	-880.45121	1515.18831	-602.39012	-1005.40365	1347.88793	-340.28688	-1102.52062	1277.09891	-383.10178	-1065.33466	1285.13869	-317.80823	-1009.17668	1176.48544	-333.48285	-971.39874	1067.61792	-360.14922	-1008.07450	1051.62720	-341.59102	-931.50668	1448.81240	-798.02651	-1101.46058	1298.08548	-790.53115	-1081.11628	1304.66016	-851.06559	-1020.17136	1206.32916	-852.04603	-987.09299	1087.11892	-824.97509	-1016.69759	1074.31778	-843.73526	-1145.47713	1130.75224	-471.17978	-1153.84809	1128.17352	-671.28021	-1141.33785	1130.44938	-475.53610	-1159.67910	1120.98530	-640.70104	
61	0.60000000	-1055.81266	752.04534	-453.69564	-1055.46099	678.06713	-428.99025	-1185.65565	399.40552	-454.97507	-1258.15565	362.07363	-491.11984	-1085.48516	353.96330	-431.64941	-1044.43606	375.11539	-488.85224	-1052.36930	753.28172	-731.01366	-1036.19540	680.00845	-735.44404	-1176.84476	403.84552	-725.26363	-1249.78046	366.74901	-678.25379	-1086.97751	351.92131	-749.44437	-1038.43820	374.78402	-694.11709	-1095.05698	571.64759	-421.88014	-1126.07966	703.15699	-432.82164	-1173.55754	596.90346	-427.45777	-1115.07671	717.87088	-758.10003	-1153.66930	600.88004	-761.35012	-1049.70894	1063.44781	-450.36684	-1018.49513	955.01988	-448.18087	-1055.40149	921.96206	-403.10641	-1134.49527	1042.69431	-378.00036	-1111.96842	928.60936	-395.40475	-1065.87223	1042.03014	-737.92286	-1025.35801	908.96006	-735.88364	-1176.59639	1010.88108	-756.98504	-1128.72152	877.82779	-751.84170	-1058.24710	1175.47587	-451.42171	-1226.98985	1255.04277	-514.14951	-1071.25756	1170.18064	-703.37910	-1238.65445	1248.75948	-619.61334	-939.26193	1633.18080	-574.00038	-893.28461	1546.66199	-429.60713	-890.98282	1559.54938	-734.01262	-874.62596	1503.64571	-561.61568	-873.81054	1505.65352	-602.55064	-998.98524	1338.00091	-340.04219	-1097.02747	1268.18781	-382.23950	-1059.23980	1275.84699	-317.12202	-1003.75957	1166.97565	-333.68090	-966.57812	1058.20619	-361.09892	-1003.12568	1042.09920	-342.27676	-925.69427	1438.48622	-798.33428	-1096.38633	1289.22368	-791.64645	-1075.84368	1295.42150	-852.04508	-1016.10772	1196.30582	-853.38300	-984.46648	1076.82750	-825.87189	-1014.07409	1064.03310	-844.31903	-1146.49601	1127.03210	-470.46002	-1154.75611	1124.12229	-670.56131	-1142.44188	1126.85567	-474.78181	-1160.71890	1117.01035	-640.03217	
62	0.61000000	-1051.17642	749.89313	-454.42044	-1051.50803	676.06521	-429.33624	-1185.46729	399.19874	-455.20423	-1258.17853	362.01576	-491.25812	-1085.42404	353.73059	-431.54886	-1044.41297	374.29829	-488.99272	-1048.17000	751.51270	-731.39492	-1032.45838	677.87975	-735.94283	-1176.70929	404.00126	-725.31207	-1249.84454	366.66745	-678.21153	-1087.05628	351.82955	-750.27394	-1038.43479	374.00996	-694.57813	-1092.54094	570.16742	-422.17773	-1121.72165	701.92329	-433.57103	-1170.73394	596.45676	-427.92740	-1110.98983	716.91558	-758.13473	-1151.24368	600.49682	-761.20727	-1049.78115	1060.87817	-448.68220	-1016.71455	952.67127	-446.35393	-1053.97073	918.88545	-402.59460	-1134.61096	1038.69212	-377.54883	-1110.50627	925.13268	-395.32360	-1066.61621	1039.54642	-739.15093	-1023.80712	907.28743	-736.99719	-1177.07735	1006.51799	-755.81083	-1126.76940	874.29631	-751.28351	-1057.84371	1170.21932	-450.49202	-1225.19750	1252.66590	-513.70167	-1070.85941	1164.31981	-702.73321	-1236.61943	1246.51190	-619.72091	-930.66143	1624.74242	-574.22407	-886.13153	1536.12965	-429.64092	-883.65978	1548.48430	-734.78721	-867.91115	1494.77619	-562.66483	-867.46092	1496.24983	-602.60409	-992.32395	1327.32809	-340.06994	-1090.79663	1258.14789	-381.52001	-1052.59323	1265.65706	-316.70574	-997.64370	1156.63116	-333.99519	-961.20798	1047.89078	-362.21570	-997.57413	1031.82104	-343.09450	-919.99246	1427.56538	-798.57984	-1090.54858	1278.94269	-792.94031	-1069.62430	1284.94758	-853.18205	-1011.08955	1185.05451	-854.64394	-981.12726	1065.45592	-826.21700	-1010.69001	1052.96524	-845.10693	-1147.12302	1123.39586	-469.70759	-1155.14986	1120.00226	-669.81031	-1143.21579	1122.55074	-474.16810	-1161.04835	1112.94206	-639.67836	
63	0.62000000	-1046.48356	747.58260	-454.88785	-1047.43123	673.79017	-430.02764	-1185.29130	399.06839	-455.52290	-1258.22843	361.95062	-491.35756	-1085.36805	353.56797	-431.51737	-1044.40406	373.60504	-489.24975	-1043.72256	749.47651	-731.99265	-1028.73173	675.48750	-736.59036	-1176.59788	403.77475	-724.93950	-1249.86102	366.56625	-678.18920	-1087.20031	351.53157	-750.55679	-1038.48597	373.45801	-695.06294	-1089.75254	568.47459	-422.76361	-1117.32758	700.58042	-434.30003	-1167.65889	595.93883	-428.55960	-1107.00159	715.49594	-757.77847	-1148.92831	599.66488	-760.83164	-1048.31060	1058.48294	-447.18317	-1014.41918	950.19331	-445.06635	-1051.83042	915.81390	-402.46558	-1133.73712	1034.72261	-377.14513	-1108.28988	921.74613	-395.03963	-1066.60870	1036.87344	-740.25860	-1021.71893	905.31278	-737.88873	-1176.85276	1001.91354	-754.43691	-1124.05960	870.62502	-750.88939	-1056.56965	1165.30873	-449.68495	-1223.08905	1249.94402	-513.35676	-1070.47385	1158.14212	-701.85528	-1234.26008	1244.00400	-619.99897	-922.64058	1616.34062	-574.77540	-879.35160	1525.89014	-429.97055	-877.02654	1537.59419	-735.48191	-861.09111	1485.85416	-563.66166	-861.48852	1486.99524	-602.79283	-985.26062	1316.21982	-340.42195	-1083.87959	1247.33172	-380.93125	-1045.27041	1254.70436	-316.59514	-990.77353	1145.57877	-334.46506	-955.02526	1036.98434	-363.47988	-991.27559	1020.98803	-344.10333	-914.21838	1416.28135	-798.59204	-1083.87067	1267.43884	-794.55674	-1062.30933	1273.38795	-854.51549	-1004.92891	1172.77910	-855.58697	-976.78123	1053.11631	-826.15282	-1006.24668	1040.89849	-845.53131	-1147.01743	1119.91808	-468.77258	-1155.19228	1115.49751	-668.84685	-1143.26670	1117.80151	-473.65669	-1160.61335	1108.57767	-639.25086	
64	0.63000000	-1041.81553	745.22951	-455.32836	-1043.05244	671.29243	-430.94008	-1185.12433	399.08151	-455.73062	-1258.27419	361.89856	-491.44719	-1085.42957	353.44581	-431.51604	-1044.37437	373.08766	-489.41769	-1038.92117	747.02312	-732.57883	-1024.81089	672.80508	-737.31901	-1176.64300	403.40397	-724.06509	-1249.84423	366.51338	-678.13797	-1087.31784	351.32772	-750.65508	-1038.50933	373.09583	-695.17504	-1086.71942	566.70028	-423.35347	-1112.70069	699.15126	-435.15799	-1164.25741	595.36284	-429.29428	-1102.71272	713.79806	-757.31209	-1146.27143	598.64912	-760.51252	-1045.43011	1056.12852	-446.16641	-1011.49545	947.80940	-444.89043	-1048.73102	913.05436	-402.47281	-1131.69175	1031.12547	-376.81455	-1105.27446	918.41454	-395.18744	-1065.68440	1034.11234	-741.25439	-1019.02003	903.14565	-738.61732	-1175.58783	997.48650	-753.43859	-1120.56200	866.97644	-750.73366	-1054.50473	1160.62617	-449.10359	-1220.74420	1246.95787	-513.18393	-1069.69659	1152.07313	-701.06830	-1231.87684	1241.02220	-620.05374	-915.09070	1608.23183	-575.38148	-872.95213	1516.20023	-430.36423	-871.01093	1526.97285	-735.98221	-854.63346	1476.54748	-563.99566	-855.83238	1477.96714	-603.22798	-977.52478	1305.28801	-341.05482	-1076.21917	1235.97599	-380.68077	-1037.07338	1243.14025	-316.83534	-983.11668	1133.99968	-335.21602	-947.84642	1025.70585	-364.78232	-984.05045	1009.66846	-345.19138	-908.02994	1405.02208	-798.27013	-1076.28247	1255.01085	-796.29721	-1053.76672	1260.85470	-855.89609	-997.34063	1159.80354	-855.95828	-971.06014	1040.17599	-825.75503	-1000.37833	1028.09686	-845.69069	-1146.05949	1116.41881	-467.85474	-1154.70446	1110.81991	-667.88130	-1142.37776	1113.25908	-473.05431	-1159.62207	1104.06506	-638.60045	
65	0.64000000	-1036.87337	742.74723	-456.27513	-1038.29500	668.75013	-431.82661	-1184.91410	399.12368	-455.80873	-1258.27613	361.92260	-491.52592	-1085.52408	353.32971	-431.49639	-1044.29432	372.63056	-489.45153	-1033.83492	744.12405	-732.22743	-1020.38130	670.02954	-737.88759	-1176.56086	403.34488	-723.37853	-1249.79053	366.56523	-678.00385	-1087.35540	351.24492	-750.72714	-1038.36836	372.77672	-694.94900	-1083.49711	564.92722	-423.94368	-1107.62633	697.70208	-436.18949	-1160.64642	594.78808	-429.95118	-1097.75430	712.19580	-757.13363	-1143.01068	597.68259	-760.25479	-1042.22947	1053.57950	-446.07628	-1007.88249	945.60959	-445.76935	-1044.55907	910.53628	-402.54513	-1128.51502	1027.79493	-376.61609	-1101.25139	915.14859	-395.98355	-1063.78294	1031.35763	-741.95522	-1015.42610	901.15796	-738.99903	-1173.23485	993.32616	-752.89620	-1116.29404	863.49900	-750.68765	-1052.14496	1156.10987	-448.41999	-1218.17978	1243.77005	-513.06173	-1067.99032	1146.72120	-700.56272	-1229.43058	1237.72651	-619.95677	-907.91002	1600.55555	-576.00639	-866.98504	1507.26669	-430.63566	-865.31146	1516.88733	-736.66245	-848.79424	1467.22754	-563.71887	-850.27813	1469.37515	-603.47387	-968.92333	1294.98521	-342.15719	-1067.55057	1224.23005	-380.94822	-1027.84032	1231.38108	-317.44187	-974.47633	1122.23451	-336.32397	-939.74032	1014.14772	-366.16646	-975.72603	998.17484	-345.90344	-901.25993	1394.33148	-797.63221	-1067.71819	1241.97176	-797.88399	-1043.91957	1247.62456	-857.19999	-988.18515	1146.46285	-855.77754	-963.68783	1027.02549	-825.03044	-992.75551	1015.02616	-845.85054	-1144.46970	1112.77985	-467.15399	-1153.32943	1106.42659	-667.15072	-1140.70919	1109.10757	-472.23822	-1158.14727	1099.74073	-637.91556	
